<svg width="24" height="24" viewBox="0 0 24 24" fill="none" xmlns="http://www.w3.org/2000/svg">
<path fill-rule="evenodd" clip-rule="evenodd" d="M14.03 11.9866C13.0445 11.9866 12.3627 12.7666 12.3627 13.6636C12.3627 14.5606 13.0445 15.3503 14.03 15.3503C15.0147 15.3503 15.707 14.5606 15.707 13.6636C15.707 12.7666 15.0147 11.9866 14.03 11.9866ZM14.03 12.9421C14.4882 12.9421 14.7027 13.2931 14.7027 13.6636C14.7027 14.0341 14.498 14.3851 14.03 14.3851C13.571 14.3851 13.367 14.0341 13.367 13.6636C13.367 13.2931 13.5815 12.9421 14.03 12.9421Z" fill="#3A3A3A"/>
<path d="M14.81 8.3978H13.679L8.93072 15.2236H10.0617L14.81 8.3978Z" fill="#3A3A3A"/>
<path fill-rule="evenodd" clip-rule="evenodd" d="M9.61247 8.30105C8.61872 8.30105 7.94522 9.08105 7.94522 9.97805C7.94522 10.8848 8.61872 11.6648 9.61247 11.6648C10.5972 11.6648 11.2895 10.8848 11.2895 9.97805C11.2895 9.08105 10.5972 8.30105 9.61247 8.30105ZM9.61247 9.25655C10.0617 9.25655 10.2762 9.60755 10.2762 9.97805C10.2762 10.3486 10.0707 10.6996 9.61247 10.6996C9.15497 10.6996 8.94947 10.3486 8.94947 9.97805C8.94947 9.60755 9.16397 9.25655 9.61247 9.25655Z" fill="#3A3A3A"/>
<path fill-rule="evenodd" clip-rule="evenodd" d="M9.32499 20.5579C9.39249 20.6359 9.52749 20.6719 9.62499 20.6381L11.6492 19.9264C11.746 19.8926 11.9057 19.8926 12.0032 19.9264L14.0275 20.6381C14.1242 20.6719 14.2585 20.6359 14.326 20.5579L15.724 18.9304C15.7907 18.8524 15.9287 18.7721 16.0307 18.7534L18.1382 18.3566C18.2395 18.3379 18.3377 18.2389 18.3565 18.1376L18.754 16.0294C18.7727 15.9281 18.8522 15.7901 18.9302 15.7234L20.5585 14.3246C20.6365 14.2586 20.6725 14.1236 20.638 14.0261L19.927 12.0026C19.8925 11.9051 19.8925 11.7461 19.927 11.6486L20.638 9.62435C20.6725 9.52685 20.6365 9.3926 20.5585 9.3251L18.9302 7.92785C18.8522 7.86035 18.7727 7.72235 18.754 7.6211L18.3565 5.5121C18.3377 5.4116 18.2395 5.3126 18.1382 5.29385L16.0307 4.89785C15.9287 4.8791 15.7907 4.79885 15.724 4.72085L14.326 3.09335C14.2585 3.0146 14.1242 2.9786 14.0275 3.0131L12.0032 3.7241C11.9057 3.75785 11.746 3.75785 11.6492 3.7241L9.62499 3.0131C9.52749 2.9786 9.39249 3.0146 9.32499 3.09335L7.92849 4.72085C7.86099 4.79885 7.72374 4.8791 7.62249 4.89785L5.51349 5.29385C5.41224 5.3126 5.31399 5.4116 5.29449 5.5121L4.89774 7.6211C4.87899 7.72235 4.79949 7.86035 4.72149 7.92785L3.09324 9.3251C3.01524 9.3926 2.97849 9.52685 3.01299 9.62435L3.72474 11.6486C3.75849 11.7461 3.75849 11.9051 3.72474 12.0026L3.01299 14.0261C2.97849 14.1236 3.01524 14.2586 3.09324 14.3246L4.72149 15.7234C4.79949 15.7901 4.87899 15.9281 4.89774 16.0294L5.29449 18.1376C5.31399 18.2389 5.41224 18.3379 5.51349 18.3566L7.62249 18.7534C7.72374 18.7721 7.86099 18.8524 7.92849 18.9304L9.32499 20.5579ZM12.0032 18.3371C11.9057 18.3034 11.746 18.3034 11.6492 18.3371L10.0952 18.8839C9.99774 18.9169 9.86274 18.8816 9.79524 18.8029L8.72424 17.5534C8.65674 17.4754 8.51874 17.3951 8.41749 17.3764L6.79824 17.0719C6.69624 17.0531 6.59874 16.9541 6.57924 16.8529L6.27474 15.2336C6.25599 15.1331 6.17649 14.9951 6.09849 14.9276L4.84824 13.8544C4.77024 13.7884 4.73349 13.6534 4.76799 13.5559L5.31399 12.0026C5.34849 11.9051 5.34849 11.7461 5.31399 11.6486L4.76799 10.0946C4.73349 9.9971 4.77024 9.86285 4.84824 9.79535L6.09849 8.72285C6.17649 8.65535 6.25599 8.5181 6.27474 8.4161L6.57924 6.79685C6.59874 6.69635 6.69624 6.59735 6.79824 6.5786L8.41749 6.27485C8.51874 6.2561 8.65674 6.17585 8.72424 6.09785L9.79524 4.84835C9.86274 4.7696 9.99774 4.7336 10.0952 4.7681L11.6492 5.31335C11.746 5.3471 11.9057 5.3471 12.0032 5.31335L13.5572 4.7681C13.654 4.7336 13.789 4.7696 13.8557 4.84835L14.9282 6.09785C14.9957 6.17585 15.1337 6.2561 15.235 6.27485L16.8535 6.5786C16.9547 6.59735 17.053 6.69635 17.0717 6.79685L17.377 8.4161C17.3957 8.5181 17.476 8.65535 17.5532 8.72285L18.8035 9.79535C18.8822 9.86285 18.9175 9.9971 18.8837 10.0946L18.3377 11.6486C18.3032 11.7461 18.3032 11.9051 18.3377 12.0026L18.8837 13.5559C18.9175 13.6534 18.8822 13.7884 18.8035 13.8544L17.5532 14.9276C17.476 14.9951 17.3957 15.1331 17.377 15.2336L17.0717 16.8529C17.053 16.9541 16.9547 17.0531 16.8535 17.0719L15.235 17.3764C15.1337 17.3951 14.9957 17.4754 14.9282 17.5534L13.8557 18.8029C13.789 18.8816 13.654 18.9169 13.5572 18.8839L12.0032 18.3371Z" fill="#3A3A3A"/>
</svg>
